<svg width="24" height="24" viewBox="0 0 24 24" fill="none" xmlns="http://www.w3.org/2000/svg">
<path d="M6.37329 5.38429C8.23992 5.23252 10.1334 5.15663 12 5.15663C12.5333 5.15663 13.0934 5.15663 13.6533 5.18187C13.4933 4.65048 13.4133 4.09407 13.4133 3.51204C13.4133 3.30962 13.4133 3.08197 13.4399 2.87955C12.96 2.85431 12.4799 2.85431 12 2.85431C9.94662 2.85431 7.91999 2.95543 5.86665 3.13262C5.09341 3.2085 4.45331 3.68921 4.21335 4.3976L2.34673 9.28045H0.58667C0.266725 9.28045 0 9.53352 0 9.83705V11.1273C0 11.4308 0.266744 11.6839 0.58667 11.6839H1.41329C1.22653 12.1646 1.14655 12.6706 1.14655 13.1765V17.8823C1.14655 18.3123 1.43989 18.6413 1.83984 18.7679V21.3231C1.83984 21.829 2.26655 22.2591 2.82646 22.2591H4.69309C4.87985 22.2591 5.03982 22.2085 5.173 22.1326C5.25298 22.0819 5.33297 22.0315 5.38635 21.9808C5.43974 21.9302 5.46634 21.8797 5.51973 21.8291C5.62631 21.6773 5.6797 21.5001 5.6797 21.3231V18.8184H13.6797C13.9997 17.8065 14.5864 16.8703 15.4398 16.1112L15.44 10.1405H4.58659L6.37329 5.38429ZM4.85338 13.6067H7.09334C7.60006 13.6067 7.99997 13.9861 7.99997 14.4668V15.0741C7.99997 15.5548 7.60004 15.9342 7.09334 15.9342H4.85338C4.34666 15.9342 3.94676 15.5548 3.94676 15.0741V14.4668C3.94657 13.9861 4.34668 13.6067 4.85338 13.6067Z" fill="black"/>
<path d="M21.9734 17.0981V6.92758C23.1999 6.21919 24 4.9542 24 3.51202C24 2.01938 23.1465 0.728961 21.8934 0.0460037C21.68 -0.0805311 21.4135 0.0712397 21.4135 0.299073V2.60139C21.4135 3.41108 20.8002 4.14468 19.9736 4.24579C18.9602 4.37232 18.0801 3.61329 18.0801 2.67725L18.08 0.298847C18.08 0.0711904 17.8132 -0.0805763 17.6001 0.0457778C16.3467 0.75417 15.4935 2.04437 15.4935 3.5118C15.4935 4.95397 16.2935 6.21896 17.4935 6.92735V17.0725C16.2935 17.7809 15.4935 19.0459 15.4935 20.4881C15.4935 21.9807 16.3469 23.2712 17.6001 23.9541C17.8134 24.0807 18.08 23.9289 18.08 23.7011V21.3987C18.08 20.589 18.6932 19.8807 19.5199 19.7543C20.5333 19.6278 21.4133 20.3868 21.4133 21.3229V23.6757C21.4133 23.9033 21.6801 24.0551 21.8932 23.9287C23.1466 23.2203 23.9998 21.9301 23.9998 20.4627C24 19.0714 23.1999 17.8064 21.9734 17.098L21.9734 17.0981Z" fill="black"/>
</svg>
