<svg width="24" height="32" viewBox="0 0 24 32" fill="none" xmlns="http://www.w3.org/2000/svg">
<path fill-rule="evenodd" clip-rule="evenodd" d="M23.5933 28H0.406734C0.181866 28 0 27.7558 0 27.4546V15.1118C0 14.9389 0.0606689 14.7769 0.163928 14.6738L10.7634 4.10793C10.8337 4.03754 10.9188 4 11.0062 4H23.5933C23.8181 4 24 4.24424 24 4.5454V27.4545C24 27.7557 23.8181 27.9999 23.5933 27.9999L23.5933 28ZM0.813364 26.9092H23.1863V5.09056H11.1406L0.813364 15.3856V26.9092Z" fill="#22262B"/>
<path fill-rule="evenodd" clip-rule="evenodd" d="M21.559 16.5455H2.90506C2.73055 16.5455 2.57559 16.3966 2.51948 16.1751C2.46377 15.9542 2.51908 15.7093 2.65743 15.5669L11.1418 6.84001C11.2127 6.76692 11.2997 6.72705 11.3892 6.72705H21.5587C21.7837 6.72705 21.9656 6.97147 21.9656 7.27245V15.9998C21.9656 16.3008 21.7837 16.5452 21.5587 16.5452L21.559 16.5455ZM4.10369 15.4546H21.1524V7.81824H11.528L4.10369 15.4546Z" fill="#22262B"/>
<path fill-rule="evenodd" clip-rule="evenodd" d="M18.7117 23.0909C18.4868 23.0909 18.3049 22.8464 18.3049 22.5453V19.2726C18.3049 18.9715 18.4868 18.7271 18.7117 18.7271H21.5591C21.7841 18.7271 21.966 18.9715 21.966 19.2726C21.966 19.5736 21.7841 19.818 21.5591 19.818H19.1185V22.5452C19.1185 22.8464 18.9367 23.0908 18.7117 23.0908" fill="#22262B"/>
</svg>
