<svg width="59" height="39" viewBox="0 0 59 39" fill="none" xmlns="http://www.w3.org/2000/svg">
<path d="M37.1671 10.3293H39.8784V27.0464H37.1671V10.3293Z" fill="#1A60CD"/>
<path d="M37.1671 28.1049H39.8784V33.5774H37.1671V28.1049Z" fill="#1A60CD"/>
<path d="M46.7679 28.3607C44.5799 28.3607 42.8043 30.6093 42.8043 33.3974C42.8043 36.1738 44.5792 38.4287 46.7679 38.4287C48.9588 38.4287 50.7338 36.1756 50.7338 33.3974C50.7334 30.6103 48.9589 28.3607 46.7679 28.3607ZM46.7679 36.0232C45.627 36.0259 44.7026 34.8496 44.7026 33.3982C44.7026 31.9432 45.6256 30.7678 46.7679 30.7678C47.9132 30.7678 48.8361 31.9432 48.8361 33.3982C48.8358 34.8482 47.9106 36.0232 46.7679 36.0232Z" fill="#1A60CD"/>
<path d="M57.8563 29.6772V22.6857L52.8349 9.00973C52.8349 9.00973 51.8787 6.77991 50.2037 6.77991H41.0117V33.5768H42.1139C42.1096 33.4805 42.1012 33.3815 42.1012 33.2825C42.1012 30.0599 44.1595 27.4466 46.6959 27.4466C49.2344 27.4466 51.2913 30.0599 51.2913 33.2825C51.2913 33.3815 51.2815 33.4805 51.2765 33.5768H58.2321C58.2321 33.5768 58.7116 33.6516 58.7116 32.74V30.3095C58.7137 30.3091 58.7951 29.7214 57.8559 29.6766L57.8563 29.6772ZM45.8618 20.8988H44.387V20.1772H45.8618V20.8988ZM48.8855 16.7088H43.2259V8.70768H51.5569L56.4204 21.7758H52.8315L48.8855 16.7088ZM57.0709 28.8664H55.5749V24.3077H57.0709V28.8664Z" fill="#1A60CD"/>
<path d="M14.1024 28.3607C11.9122 28.3607 10.1373 30.6093 10.1373 33.3974C10.1373 36.1738 11.9122 38.4287 14.1024 38.4287C16.2926 38.4287 18.0675 36.1756 18.0675 33.3974C18.0675 30.6103 16.2926 28.3607 14.1024 28.3607ZM14.1024 36.0232C12.9608 36.0259 12.0349 34.8496 12.0349 33.3982C12.0349 31.9432 12.958 30.7678 14.1024 30.7678C15.2476 30.7678 16.1699 31.9432 16.1699 33.3982C16.1699 34.8482 15.2475 36.0232 14.1024 36.0232Z" fill="#1A60CD"/>
<path d="M27.9977 28.1049H17.1432L19.118 30.84V33.5774H36.3195V28.1049H27.9977Z" fill="#1A60CD"/>
<path d="M7.9611 28.1049H4.08313V33.5774H8.93635V30.84L10.9104 28.1049H7.9611Z" fill="#1A60CD"/>
<path d="M34.3835 26.934V21.0064C34.3835 21.0064 36.0565 20.6709 36.0565 18.2113C36.0565 18.2113 35.8802 16.5328 34.3835 16.0858H27.7812V21.0074H31.9191V26.9349H34.3836L34.3835 26.934Z" fill="#1A60CD"/>
<path d="M32.3598 13.1781L28.6623 25.8174H21.796C21.796 25.8174 12.5525 22.0134 3.92468 10.1587L6.91803 2.55359C6.91803 2.55359 21.883 3.55966 27.2534 7.36276L32.3598 13.1781Z" fill="#1A60CD"/>
<path d="M11.5417 0.428589H0.714233L3.61913 5.34876L4.32322 27.0461H7.58066L8.19696 5.34876L11.5417 0.428589Z" fill="#1A60CD"/>
</svg>
