<svg width="24" height="32" viewBox="0 0 24 32" fill="none" xmlns="http://www.w3.org/2000/svg">
<path d="M20.4877 8.34791H23.4145C23.7364 8.34791 23.9998 8.03492 23.9998 7.65232L24 0.69583C24 0.31321 23.7366 0.000242623 23.4147 0.000242623L20.4877 0C20.1657 0 19.9024 0.312986 19.9024 0.695587V3.47825H14.5756C14.312 1.7044 12.995 0.347949 11.4146 0.347949C9.83427 0.347949 8.51705 1.70447 8.25369 3.47825H4.09763V0.695836C4.09763 0.313216 3.83426 0.000248428 3.51232 0.000248428L0.585518 5.80495e-06C0.263559 5.80495e-06 0 0.313234 0 0.695842V7.65233C0 8.03495 0.263365 8.34792 0.585308 8.34792H3.51211C3.83407 8.34792 4.09742 8.03494 4.09742 7.65233V4.86968H8.25348C8.48765 6.43482 9.5119 7.65234 10.8291 7.93059V24.0697C9.51211 24.3479 8.48763 25.5652 8.25348 27.1306L4.09763 27.1303V24.3477C4.09763 23.9651 3.83426 23.6521 3.51232 23.6521H0.585518C0.263559 23.6521 0.000209341 23.9651 0.000209341 24.3477V31.3042C0.000209341 31.6868 0.263575 31.9998 0.585518 31.9998H3.51232C3.83428 31.9998 4.09763 31.6868 4.09763 31.3042V28.5215H8.25369C8.51706 30.2954 9.83406 31.6518 11.4146 31.6518C12.995 31.6518 14.3122 30.2953 14.5756 28.5215L19.9024 28.5218V31.3044C19.9024 31.687 20.1657 32 20.4877 32H23.4145C23.7364 32 23.9998 31.687 23.9998 31.3044L24 24.3479C24 23.9653 23.7366 23.6523 23.4147 23.6523H20.4877C20.1657 23.6523 19.9024 23.9653 19.9024 24.3479V27.1306H14.5756C14.3414 25.5654 13.3172 24.3479 11.9999 24.0697V7.93059C13.317 7.6523 14.3414 6.43507 14.5756 4.86968L19.9024 4.86992V7.65258C19.9024 8.0352 20.1657 8.34817 20.4877 8.34817L20.4877 8.34791ZM2.92686 6.95649H1.17067L1.17088 1.39142H2.92706L2.92686 6.95649ZM2.92686 30.6086H1.17067L1.17088 25.0435H2.92706L2.92686 30.6086ZM21.073 25.0435H22.8292V30.6088H21.073V25.0435ZM13.4634 27.8259C13.4634 29.1824 12.5561 30.2606 11.4146 30.2606C10.2732 30.2606 9.36593 29.1824 9.36593 27.8259C9.36593 26.4694 10.2732 25.3912 11.4146 25.3912C12.5561 25.3912 13.4634 26.4694 13.4634 27.8259ZM11.4146 6.6086C10.2732 6.6086 9.36593 5.53041 9.36593 4.17389C9.36593 2.81737 10.2732 1.73918 11.4146 1.73918C12.5561 1.73918 13.4634 2.81737 13.4634 4.17389C13.4634 5.53041 12.5561 6.6086 11.4146 6.6086ZM21.0731 1.39123H22.8293V6.95655H21.0731V1.39123Z" fill="black"/>
</svg>
