<svg width="59" height="39" viewBox="0 0 59 39" fill="none" xmlns="http://www.w3.org/2000/svg">
<path d="M57.4899 30.2644H52.4632C51.8186 30.2644 51.3035 30.7447 51.3035 31.3448V32.9657C51.3035 33.5662 51.8191 34.0461 52.4632 34.0461H57.4899C58.1346 34.0461 58.6497 33.5658 58.6497 32.9657V31.3448C58.6497 30.7447 58.0698 30.2644 57.4899 30.2644Z" fill="#1A60CD"/>
<path d="M22.6255 32.1853C21.0787 32.1853 19.7898 33.3858 19.7898 34.8268C19.7898 36.2678 21.0786 37.4683 22.6255 37.4683C24.1723 37.4683 25.4612 36.2678 25.4612 34.8268C25.5254 33.3863 24.2366 32.1853 22.6255 32.1853ZM22.6255 36.0273C21.9166 36.0273 21.3367 35.4872 21.3367 34.8268C21.3367 34.1665 21.9166 33.6263 22.6255 33.6263C23.3344 33.6263 23.9143 34.1665 23.9143 34.8268C23.9143 35.4872 23.3344 36.0273 22.6255 36.0273Z" fill="#1A60CD"/>
<path d="M13.7966 32.1853C12.2498 32.1853 10.9609 33.3858 10.9609 34.8268C10.9609 36.2678 12.2497 37.4683 13.7966 37.4683C15.3434 37.4683 16.6323 36.2678 16.6323 34.8268C16.6323 33.3863 15.3431 32.1853 13.7966 32.1853ZM13.7966 36.0273C13.0877 36.0273 12.5078 35.4872 12.5078 34.8268C12.5078 34.1665 13.0877 33.6263 13.7966 33.6263C14.5055 33.6263 15.0854 34.1665 15.0854 34.8268C15.0854 35.4872 14.5055 36.0273 13.7966 36.0273Z" fill="#1A60CD"/>
<path d="M41.2499 29.7841C38.6723 29.7841 36.6099 31.7053 36.6099 34.1064C36.6099 36.5074 38.6723 38.4286 41.2499 38.4286C43.8274 38.4286 45.8899 36.5074 45.8899 34.1064C45.8899 31.7049 43.7632 29.7841 41.2499 29.7841ZM41.2499 36.3878C39.8963 36.3878 38.7365 35.3673 38.7365 34.0465C38.7365 32.7258 39.832 31.7053 41.2499 31.7053C42.6034 31.7053 43.7632 32.7258 43.7632 34.0465C43.7632 35.3668 42.6034 36.3878 41.2499 36.3878Z" fill="#1A60CD"/>
<path d="M57.5544 22.34L50.5301 12.2549C49.7569 11.1142 48.4034 10.394 46.9213 10.394H32.4857V23.0007L14.8279 23.0003L14.9569 22.9404L20.6925 20.9593L27.6521 18.678L30.3588 17.7777C31.132 17.4775 31.5834 16.6973 31.261 15.9168L27.6522 7.03178L32.4856 4.15036L31.7124 2.22913L26.4277 4.03019L24.1077 4.81073L22.6899 5.29104L15.1499 7.8722L9.47908 9.85325L2.71228 12.1346L7.09429 23.2405V33.4462C7.09429 33.9864 7.6099 34.4667 8.18979 34.4667H9.86523C9.99425 32.6058 11.6697 31.1648 13.7321 31.1648C15.7946 31.1648 17.4057 32.6057 17.5991 34.4667H18.8878C19.0168 32.6058 20.628 31.105 22.69 31.105C24.6876 31.105 26.3635 32.6058 26.4921 34.4667H35.1275V34.2866C35.1275 31.1049 37.8984 28.5837 41.2497 28.5837C44.6652 28.5837 47.3718 31.1649 47.3718 34.2866V34.4667H50.0141V30.8646C50.0141 29.8441 50.9163 29.0635 51.9476 29.0635H58.0697C58.3273 29.0635 58.5211 29.1234 58.7144 29.1837V26.002C58.7148 24.7411 58.3282 23.4803 57.5546 22.3396L57.5544 22.34ZM24.8166 6.49159L27.8455 14.1157C28.2968 15.3163 27.6522 16.6371 26.4277 17.0574C26.1701 17.1776 25.8478 17.1776 25.5898 17.1776C24.5585 17.1776 23.6563 16.6374 23.2697 15.6768L20.2413 8.05264L24.8166 6.49159ZM17.5989 8.95301L20.6278 16.5772C21.0791 17.7777 20.4345 19.0985 19.21 19.5188C18.9524 19.639 18.6301 19.639 18.3721 19.639C17.3409 19.639 16.4386 19.0988 16.0521 18.1382L13.0232 10.5141L17.5989 8.95301ZM10.4455 11.4743L13.4744 19.0985C13.9257 20.299 13.2811 21.6198 12.0566 22.0402C11.799 22.1603 11.4767 22.1603 11.2187 22.1603C10.1875 22.1603 9.28526 21.6202 8.8987 20.6596L5.8698 13.0354L10.4455 11.4743ZM39.7034 21.0797H35.3853V13.1552H39.6387V21.0797H39.7034ZM42.2167 21.0797V13.1552H46.7925C47.6947 13.1552 48.5327 13.5757 48.9835 14.2959L53.3013 21.0194H42.2169L42.2167 21.0797Z" fill="#1A60CD"/>
<path d="M0.714355 12.8549L1.16524 27.0224L3.03436 26.4224L2.71205 12.1348L0.714355 12.8549Z" fill="#1A60CD"/>
<path d="M25.6541 3.00979C25.1385 2.16936 24.2363 1.3289 23.0766 1.3289C22.3676 1.3289 21.7878 1.56884 21.2721 1.92939C20.4342 1.02908 19.2096 0.428589 17.8565 0.428589C16.4388 0.428589 15.1499 1.08896 14.312 2.10948C13.474 1.26906 12.3143 0.728856 10.9607 0.728856C8.64072 0.728856 6.70726 2.46957 6.64293 4.63071C6.44963 4.63071 6.25633 4.57083 5.9983 4.57083C3.54929 4.57083 1.6163 6.43171 1.68051 8.65279C1.68051 9.43333 1.87381 10.3935 2.32514 11.0538L25.6541 3.00979Z" fill="#1A60CD"/>
<path d="M11.2187 21.0794C11.3477 21.0794 11.541 21.0794 11.67 21.0195C12.3146 20.7796 12.7012 20.1192 12.4432 19.4588L9.80084 12.8551L7.4165 13.6955L10.0589 20.2992C10.1879 20.7791 10.7035 21.0794 11.2186 21.0794L11.2187 21.0794Z" fill="#1A60CD"/>
<path d="M18.3722 18.6181C18.5012 18.6181 18.6945 18.6181 18.8236 18.5583C19.1459 18.4381 19.4035 18.1981 19.5325 17.9578C19.6615 17.6575 19.6615 17.3573 19.5968 17.0575L16.9544 10.4537L14.5701 11.2942L17.2124 17.8979C17.3414 18.258 17.8566 18.6181 18.3722 18.6181H18.3722Z" fill="#1A60CD"/>
<path d="M25.5898 16.0968C25.7188 16.0968 25.9121 16.0968 26.0411 16.0369C26.6857 15.7969 27.0723 15.1366 26.8143 14.4762L24.1719 7.87244L21.7876 8.71286L24.4299 15.3166C24.5585 15.7965 25.0094 16.0967 25.5897 16.0967L25.5898 16.0968Z" fill="#1A60CD"/>
</svg>
