<svg width="24" height="32" viewBox="0 0 24 32" fill="none" xmlns="http://www.w3.org/2000/svg">
<path d="M22.7999 13.7142H20.3998V14.857L19.1999 14.8572V12.3533C19.2007 12.1407 19.139 11.9323 19.0217 11.7517C18.9044 11.5712 18.7364 11.4253 18.5365 11.3308L16.5947 10.4061C16.428 10.3271 16.2443 10.286 16.0581 10.2856H13.1998V9.1428H15.5999V8H7.20001V9.1428H9.60009L9.59989 10.2856H6.79322C6.5423 10.285 6.29741 10.36 6.09368 10.4999L4.73324 11.4286H2.39987V16H1.19993V11.4286H0V21.7144H1.19993V17.1428H2.39987V21.7142L5.77488 21.7144L8.60608 23.7664L8.60628 23.7662C8.81561 23.9175 9.07115 23.9996 9.33389 24H18.0001C18.3182 23.9998 18.6233 23.8793 18.8483 23.665C19.0733 23.4507 19.1997 23.1602 19.2001 22.8572V21.7144H20.4V22.8572H22.8001C23.1183 22.8568 23.4232 22.7365 23.6482 22.5222C23.8732 22.3079 23.9998 22.0173 24 21.7144V14.8572C23.9998 14.5542 23.8732 14.2637 23.6482 14.0495C23.4232 13.8352 23.1183 13.7146 22.8001 13.7142L22.7999 13.7142ZM10.8 9.14279H12V10.2856H10.8V9.14279ZM22.7999 21.7145H21.6V20.5715H19.1999C18.8817 20.5719 18.5767 20.6924 18.3517 20.9067C18.1267 21.121 18.0002 21.4114 18 21.7145V22.8573H9.33372L6.50252 20.8052C6.29319 20.6541 6.03765 20.572 5.7747 20.5714H3.59983V12.5716H4.73306C4.98357 12.5719 5.22806 12.4969 5.43136 12.3573L6.79304 11.4288H16.0579L18 12.3534V14.8573C18.0002 15.1602 18.1267 15.4508 18.3517 15.6651C18.5767 15.8794 18.8817 15.9998 19.1999 16.0001H21.6V14.8573H22.7999V21.7145Z" fill="#22262B"/>
</svg>
