<svg width="59" height="39" viewBox="0 0 59 39" fill="none" xmlns="http://www.w3.org/2000/svg">
<path d="M55.2079 30.3109H47.0224L47.7655 28.4439H50.3528C53.1853 28.4439 53.9841 25.602 53.9841 25.602L54.783 18.4704C54.783 16.7796 52.3864 16.5073 52.3864 16.5073H49.5539L48.6829 4.9767C48.3198 2.45956 45.7773 2.62146 45.7773 2.62146H40.1125V1.36319C40.1125 0.84784 39.739 0.428589 39.2775 0.428589C38.8156 0.428589 38.4426 0.846723 38.4426 1.36319V2.62146H35.0756C34.0336 2.62146 33.8321 4.08302 33.8321 4.08302L33.6166 5.85284C30.9507 0.14363 27.1248 1.51243 27.1248 1.51243L24.4519 1.91842C23.1106 0.397749 20.536 0.842962 20.536 0.842962V0.866713L11.7705 1.47983C11.4306 1.50303 11.1445 1.71735 11.0012 2.01618L2.56084 2.6061C2.47784 2.61163 2.3988 2.62267 2.32271 2.63925C1.98824 2.21724 1.46403 1.7759 0.940302 2.21558C0.940302 2.21558 0.431923 3.06842 0.940302 4.40849L2.0297 6.92563L1.95658 8.95507C1.95658 8.95507 1.95658 9.27323 2.2115 9.5102L4.05429 16.3695C4.12 16.6136 4.27513 16.7931 4.45101 16.8588L5.49643 20.7503C5.36254 20.9 5.27904 21.1082 5.27904 21.338C5.27904 21.797 5.61203 22.1704 6.02358 22.1704C6.05915 22.1704 6.09374 22.1671 6.12783 22.1616L7.10458 24.0915C7.05221 24.2069 7.02256 24.3367 7.02256 24.4737C7.02256 24.7554 7.14707 25.0056 7.33777 25.1586C7.0616 25.31 6.79086 25.526 6.58336 25.8325L4.9762 28.4822C4.9762 28.4822 4.04985 30.553 5.35711 31.7709L12.2699 36.1562C12.2699 36.1562 12.4151 35.912 12.1607 35.3851L11.4349 34.4102C11.4349 34.4102 10.9142 33.5369 10.8599 32.9889L10.3964 25.4977L11.2166 25.1199C11.2235 25.1166 11.2309 25.1138 11.2378 25.1094L11.2413 25.1078C11.4834 24.9884 11.6528 24.7172 11.6528 24.4013C11.6528 24.2847 11.6286 24.1732 11.5871 24.0743L6.87833 7.28531L25.9272 6.76663L27.2884 7.53938C27.7567 7.93763 28.1643 8.06026 28.484 8.06744L30.0427 12.7625C29.894 13.0105 29.8584 13.374 29.9745 13.7253L31.9414 19.6477L31.3959 24.1379C31.3959 28.908 34.4467 28.442 34.4467 28.442H37.3344L38.0775 30.3089L29.8915 30.3095C28.5743 30.3095 27.4262 31.1093 26.8269 32.2914L24.3408 33.384C24.3408 33.384 23.9051 32.1362 23.1423 31.9832C23.1423 31.9832 22.5978 31.9832 22.4071 32.4091C22.4071 32.4091 23.4965 36.2768 22.2441 37.5863C22.2441 37.5863 23.5247 38.3773 24.2055 37.5863L24.4239 35.2106L26.3868 34.2666V34.5715C26.3868 36.7013 27.9569 38.4286 29.8927 38.4286H55.2085C57.1443 38.4286 58.7144 36.7013 58.7144 34.5715V34.1666C58.7134 32.0372 57.1437 30.3105 55.2075 30.3105L55.2079 30.3109ZM9.49242 23.7019H8.07498C7.98358 23.6577 7.8823 23.6329 7.77608 23.6329C7.73309 23.6329 7.6911 23.6368 7.65009 23.645L6.68125 21.7311C6.73707 21.6146 6.7682 21.4809 6.7682 21.3401C6.7682 20.8799 6.43521 20.5071 6.02366 20.5071C6.00291 20.5071 5.98167 20.5088 5.9619 20.5104L4.93772 16.6986C5.05234 16.5356 5.09286 16.2893 5.02715 16.0451L3.33297 9.74102C3.35767 9.73715 3.38336 9.73329 3.40856 9.72832L9.49242 23.7019ZM4.29303 4.98419C3.7224 4.44785 3.20068 3.92476 2.90772 3.54752L11.0557 2.97804C11.2306 3.25422 11.5379 3.42601 11.8788 3.40226L17.0896 3.03881L4.29303 4.98419ZM32.3573 16.2336L31.3375 13.1619C31.2214 12.8112 30.9818 12.5609 30.7244 12.482L29.1919 7.86749C29.2101 7.85313 29.2185 7.84485 29.2185 7.84485C30.1632 8.19007 32.1656 10.8056 32.8958 11.792L32.3573 16.2336ZM44.7704 19.4301H33.334L34.9679 6.14032C35.1571 4.66773 37.0913 4.67933 37.0913 4.67933H44.7704V19.4301Z" fill="#1A60CD"/>
</svg>
