<svg width="34" height="34" viewBox="0 0 34 34" fill="none" xmlns="http://www.w3.org/2000/svg">
<path d="M30.8529 13.5933H28.7072C28.454 12.733 28.1095 11.9101 27.6791 11.1374L29.2044 9.61209C29.6107 9.21592 29.8368 8.68228 29.84 8.10996C29.844 7.52999 29.6198 6.98399 29.2076 6.57181L27.4305 4.81071C27.0309 4.40074 26.4924 4.17506 25.9151 4.17506C25.3401 4.17506 24.7998 4.39902 24.393 4.80579L22.8754 6.32343C22.0912 5.89622 21.2639 5.55521 20.4075 5.30639L20.4077 3.14742C20.4077 1.96311 19.4442 1 18.2598 1H15.7417C14.5574 1 13.5938 1.96356 13.5938 3.14742V5.30866C12.7428 5.55923 11.9199 5.89972 11.1402 6.3252L9.61314 4.81146C9.21352 4.40149 8.67495 4.17582 8.09772 4.17582C7.52269 4.17582 6.98237 4.39978 6.57739 4.80507L4.78774 6.57948C3.96434 7.42383 3.96706 8.78209 4.79267 9.60771L6.3224 11.1375C5.88755 11.9185 5.54656 12.7411 5.30462 13.5934L3.14789 13.5929C1.9636 13.5929 1 14.5631 1 15.7558V18.2592C1 19.4435 1.96354 20.4067 3.14789 20.4067H5.30241C5.54312 21.2643 5.8841 22.0921 6.3207 22.8763L4.78705 24.3972C3.96366 25.2415 3.96637 26.5998 4.79198 27.4254L6.57501 29.2085C6.98177 29.6152 7.52253 29.8399 8.09711 29.8399C8.67436 29.8399 9.2129 29.6138 9.6076 29.2085L11.1381 27.6787C11.9097 28.1086 12.7331 28.4531 13.5935 28.7064V30.8521C13.5935 32.0364 14.557 33 15.7414 33H18.2595C19.4438 33 20.4074 32.0364 20.4074 30.8521V28.7081C21.2734 28.4558 22.1012 28.1109 22.8771 27.6795L24.393 29.2087C24.7997 29.6155 25.3405 29.8402 25.9151 29.8402C26.4923 29.8402 27.0309 29.614 27.4256 29.2087L29.2044 27.4299C29.6106 27.0337 29.8368 26.5001 29.84 25.9278C29.8439 25.3478 29.6197 24.8018 29.2076 24.3901L27.6801 22.8756C28.1122 22.0998 28.4566 21.2719 28.7087 20.406H30.8526C32.0369 20.406 33 19.4424 33 18.2585V15.7551C33.0005 14.5636 32.0374 13.5935 30.8531 13.5935L30.8529 13.5933ZM31.8966 18.2597C31.8966 18.8352 31.4284 19.3033 30.8529 19.3033H28.2872C28.0344 19.3033 27.8141 19.4751 27.7523 19.7195C27.4847 20.7752 27.0691 21.772 26.5167 22.6819C26.3842 22.9 26.4192 23.1803 26.6 23.3602L28.4288 25.173C28.6291 25.3733 28.7385 25.6394 28.7363 25.9213C28.7346 26.1967 28.6269 26.4517 28.4288 26.6453L26.6402 28.4336C26.2571 28.826 25.5658 28.8216 25.1745 28.4304L23.36 26.6002C23.1806 26.4192 22.9007 26.3839 22.6817 26.517C21.7716 27.0689 20.7745 27.4845 19.7193 27.7521C19.4742 27.8139 19.3032 28.0347 19.3032 28.2869V30.8527C19.3032 31.4283 18.8346 31.8969 18.259 31.8969H15.7408C15.1653 31.8969 14.6967 31.4283 14.6967 30.8527V28.2869C14.6967 28.0347 14.5262 27.8151 14.2823 27.7528C13.232 27.4823 12.2404 27.0669 11.3337 26.5172C11.2448 26.463 11.146 26.4371 11.0479 26.4371C10.905 26.4371 10.7636 26.4923 10.6572 26.5988L8.82168 28.4338C8.43857 28.8263 7.74947 28.8233 7.35426 28.4289L5.57124 26.6458C5.17729 26.2518 5.17951 25.575 5.56951 25.175L7.39959 23.3604C7.58067 23.181 7.61541 22.9006 7.48286 22.6821C6.92335 21.7594 6.5139 20.7648 6.26483 19.7268C6.20521 19.4785 5.98347 19.3031 5.72774 19.3031L3.14774 19.3026C2.57222 19.3026 2.1036 18.8344 2.1036 18.2589V15.7555C2.1036 15.1711 2.5722 14.6963 3.14774 14.6963H5.72875C5.98325 14.6963 6.20499 14.5219 6.2651 14.2748C6.51566 13.2432 6.92514 12.2532 7.48364 11.3333C7.61544 11.1157 7.58194 10.8366 7.40184 10.6567L5.57176 8.82658C5.17781 8.43263 5.18003 7.75581 5.57004 7.35574L7.35477 5.5858C7.74995 5.19061 8.43266 5.18248 8.8283 5.58753L10.6588 7.40212C10.8365 7.57877 11.1114 7.61302 11.3277 7.48539C12.2516 6.94016 13.2454 6.52846 14.282 6.26191C14.5259 6.19958 14.6964 5.97932 14.6964 5.72777L14.6966 3.14748C14.6966 2.57194 15.1652 2.10382 15.7407 2.10382H18.2589C18.8345 2.10382 19.3031 2.57193 19.3031 3.14748V5.72852C19.3031 5.9813 19.4748 6.20157 19.7192 6.26341C20.7611 6.52777 21.7601 6.93948 22.6873 7.48644C22.9036 7.61382 23.1795 7.57909 23.3579 7.40144L25.1725 5.58685C25.5672 5.19166 26.2509 5.1828 26.646 5.58857L28.428 7.3546C28.6283 7.55491 28.7377 7.82099 28.7355 8.10283C28.7338 8.37828 28.6261 8.63328 28.428 8.8269L26.5975 10.657C26.4177 10.8369 26.3839 11.1162 26.5157 11.3336C27.0659 12.2415 27.4815 13.2331 27.752 14.2822C27.8144 14.5261 28.0346 14.6966 28.2862 14.6966H30.8519C31.4375 14.6966 31.8956 15.1618 31.8956 15.7558L31.8953 18.2597L31.8966 18.2597Z" fill="white" stroke="white"/>
<path d="M17.0081 10.5741C13.4606 10.5741 10.5742 13.4604 10.5742 17.0087C10.5742 20.5479 13.4605 23.427 17.0081 23.427C20.5472 23.427 23.4263 20.5478 23.4263 17.0087C23.4263 13.4606 20.5472 10.5741 17.0081 10.5741ZM17.0081 22.3232C14.0689 22.3232 11.6781 19.939 11.6781 17.0086C11.6781 14.0693 14.0694 11.678 17.0081 11.678C19.9385 11.678 22.3226 14.0693 22.3226 17.0086C22.3226 19.939 19.9387 22.3232 17.0081 22.3232Z" fill="white" stroke="white"/>
<path d="M19.324 15.0383L16.57 17.7928L15.145 16.3685C14.9292 16.1527 14.5803 16.1527 14.3647 16.3685C14.1489 16.5843 14.1489 16.9337 14.3647 17.1488L16.1798 18.9634C16.2874 19.071 16.4286 19.125 16.57 19.125C16.7112 19.125 16.8526 19.0708 16.9603 18.9634L20.1042 15.8186C20.3201 15.6028 20.3201 15.254 20.1042 15.0384C19.8887 14.8226 19.5398 14.8226 19.324 15.0384V15.0383Z" fill="white" stroke="white"/>
</svg>
