<svg width="59" height="39" viewBox="0 0 59 39" fill="none" xmlns="http://www.w3.org/2000/svg">
<path d="M56.5207 19.6638L50.2455 18.6912L46.6511 11.5357C45.6763 9.59055 43.8484 8.40967 41.8991 8.40967H35.0146C34.3444 8.40967 33.7962 9.03479 33.7962 9.79896V24.0404C33.7962 24.8046 33.248 25.4297 32.5778 25.4297H1.93309C1.26291 25.4297 0.714722 26.0549 0.714722 26.819V31.0567C0.714722 31.8209 1.26294 32.446 1.93309 32.446H4.67456C4.91807 35.6419 7.23336 38.1429 10.0968 38.1429C12.9602 38.1429 15.2755 35.6419 15.519 32.446H43.7877C44.0312 35.6419 46.3465 38.1429 49.2099 38.1429C52.0734 38.1429 54.3887 35.6419 54.6322 32.446H56.2772C57.6175 32.446 58.714 31.1958 58.714 29.6674L58.7144 22.4422C58.5924 21.053 57.6787 19.872 56.5211 19.6637L56.5207 19.6638ZM10.0967 35.1557C8.51276 35.1557 7.23325 33.6966 7.23325 31.8906C7.23325 30.0845 8.51287 28.6255 10.0967 28.6255C11.6806 28.6255 12.9601 30.0846 12.9601 31.8906C12.9601 33.6971 11.6198 35.1557 10.0967 35.1557ZM37.6952 18.5522V12.3001H41.8378C42.5688 12.3001 43.239 12.7867 43.6044 13.4811L46.1632 18.5523L37.6952 18.5522ZM49.088 35.1557C47.5041 35.1557 46.2246 33.6966 46.2246 31.8906C46.2246 30.0845 47.5042 28.6255 49.088 28.6255C50.6718 28.6255 51.9514 30.0846 51.9514 31.8906C51.9514 33.6971 50.6718 35.1557 49.088 35.1557Z" fill="#1A60CD"/>
<path d="M1.93272 23.4847H30.8716C31.5418 23.4847 32.09 22.8596 32.09 22.0954V1.53211C32.09 0.767909 31.5417 0.142822 30.8716 0.142822H1.93272C1.26254 0.142822 0.714355 0.767946 0.714355 1.53211V22.0954C0.714355 22.8591 1.26257 23.4847 1.93272 23.4847Z" fill="#1A60CD"/>
</svg>
