<svg width="59" height="39" viewBox="0 0 59 39" fill="none" xmlns="http://www.w3.org/2000/svg">
<path d="M9.60906 29.4648C7.15235 29.4648 5.16296 31.4731 5.16296 33.9449C5.16296 36.4241 7.15276 38.4286 9.60906 38.4286C12.0641 38.4286 14.0552 36.4236 14.0552 33.9449C14.0552 31.4727 12.0637 29.4648 9.60906 29.4648Z" fill="#1A60CD"/>
<path d="M22.9081 29.4648C20.451 29.4648 18.4601 31.4731 18.4601 33.9449C18.4601 36.4241 20.4515 38.4286 22.9081 38.4286C25.3612 38.4286 27.3542 36.4236 27.3542 33.9449C27.3546 31.4727 25.3617 29.4648 22.9081 29.4648Z" fill="#1A60CD"/>
<path d="M47.6959 29.4648C45.2373 29.4648 43.2462 31.4731 43.2462 33.9449C43.2462 36.4241 45.2377 38.4286 47.6959 38.4286C50.151 38.4286 52.142 36.4236 52.142 33.9449C52.142 31.4727 50.1506 29.4648 47.6959 29.4648Z" fill="#1A60CD"/>
<path d="M54.2678 18.357V18.3427L49.8217 9.38226H38.9203V25.1772H36.4814L36.481 0.428589H0.714233V31.8045H2.98161C3.88264 28.9797 6.51086 26.9318 9.60839 26.9318C12.7044 26.9318 15.3362 28.9796 16.2372 31.8045H16.2797C17.1791 28.9797 19.811 26.9318 22.9086 26.9318C26.0046 26.9318 28.6344 28.9796 29.5354 31.8045H41.0675C41.9701 28.9797 44.5988 26.9318 47.6964 26.9318C50.7903 26.9318 53.4225 28.9796 54.3212 31.8045H58.7142V20.8929L54.2678 18.357Z" fill="#1A60CD"/>
</svg>
