<svg width="59" height="39" viewBox="0 0 59 39" fill="none" xmlns="http://www.w3.org/2000/svg">
<path d="M58.6776 28.746L55.6022 13.194C55.4386 12.3712 54.761 11.7133 53.8692 11.5144L50.8491 10.8378L47.1877 2.68021C46.8475 1.92199 46.0576 1.41199 45.1594 1.36779L26.0328 0.432774C25.2691 0.387723 24.5176 0.70902 24.0512 1.2709C23.5866 1.83275 23.4586 2.56886 23.7109 3.23273L24.9943 6.61995L20.4787 21.4392C20.2646 20.8544 19.7916 20.3742 19.156 20.143C18.4512 19.888 17.6549 19.9594 17.0183 20.3342L2.34399 29.046C1.82521 29.3529 1.46534 29.8348 1.33916 30.3865L0.763374 32.8992C0.626904 33.4916 0.778331 34.1079 1.17654 34.5941C1.57474 35.0803 2.18323 35.3863 2.84597 35.4365L20.2506 36.7633C20.417 36.8849 20.5833 37.0048 20.7609 37.1153C22.1453 37.9789 23.7492 38.4277 25.3934 38.4277C25.9 38.4277 26.4094 38.3852 26.917 38.2993C29.0762 37.9338 30.9495 36.8246 32.1888 35.1789C32.5253 34.7352 32.8011 34.2608 33.0208 33.7687L35.0762 33.7287C35.2903 34.2141 35.5585 34.6842 35.8885 35.1287C37.1158 36.7846 38.9797 37.9075 41.1352 38.2883C41.6661 38.3818 42.1961 38.4286 42.7242 38.4286C44.346 38.4286 45.9295 37.9925 47.3036 37.1493C48.9823 36.1199 50.1535 34.5942 50.6546 32.827L57.037 31.1474C58.1792 30.8507 58.8877 29.8112 58.6774 28.7461L58.6776 28.746ZM16.7801 25.5278L17.583 28.6594C17.1699 29.8205 17.0764 31.065 17.326 32.2984L6.73541 31.4917L16.7801 25.5278ZM50.4555 28.479C50.177 27.7573 49.776 27.073 49.2591 26.45C48.6141 25.6739 47.3962 25.5201 46.5455 26.1074C45.6921 26.6939 45.5229 27.7998 46.1688 28.5751C46.9157 29.471 47.2064 30.6125 46.9727 31.7066C46.7502 32.7436 46.0987 33.6395 45.1369 34.2295C44.1751 34.8177 43.0253 35.0311 41.8756 34.8313C40.7362 34.629 39.7519 34.0366 39.1041 33.1619C38.4554 32.2872 38.2208 31.234 38.4433 30.1944C38.6779 29.1013 39.4201 28.1425 40.48 27.5671C41.3989 27.0689 41.698 25.9869 41.1502 25.1521C40.6025 24.3148 39.4107 24.0445 38.4946 24.5426C36.4943 25.6298 35.0921 27.4394 34.6463 29.5083L33.4667 29.533C33.4414 29.4182 33.4265 29.3035 33.3956 29.1904C33.1432 28.2461 32.0982 27.6681 31.056 27.8942C30.0175 28.1237 29.3782 29.0765 29.6306 30.0218C29.9269 31.131 29.7025 32.2557 28.9968 33.189C28.3416 34.0594 27.3517 34.6451 26.2112 34.8389C25.0718 35.0301 23.9155 34.8108 22.9564 34.2124C21.9983 33.6157 21.3533 32.7147 21.1402 31.6769C20.928 30.6399 21.1711 29.5892 21.8291 28.7196C22.5236 27.7999 23.6247 27.1879 24.8521 27.0417C25.9121 26.9151 26.6598 26.0302 26.5206 25.0663C26.3963 24.2001 25.6064 23.5635 24.6698 23.538L25.5756 20.5672L44.1348 16.2084C44.3946 16.1472 44.5526 15.9058 44.4843 15.6695C44.417 15.4332 44.1535 15.2853 43.8917 15.3516L25.8709 19.582L29.6697 7.11744C29.7959 6.70519 29.7809 6.26828 29.6267 5.86452L29.2332 4.82496L43.4401 5.51857L46.9922 13.433C47.2735 14.0604 47.8671 14.5253 48.5878 14.6868L51.293 15.292L53.7289 27.6156L50.4555 28.479Z" fill="#1A60CD"/>
</svg>
