<svg width="24" height="32" viewBox="0 0 24 32" fill="none" xmlns="http://www.w3.org/2000/svg">
<path d="M12 22.857C10.1814 22.857 8.4373 22.1346 7.15119 20.8487C5.86527 19.5626 5.14282 17.8184 5.14282 15.9999C5.14282 14.1813 5.86527 12.4372 7.15119 11.1511C8.4373 9.86515 10.1814 9.1427 12 9.1427C13.8186 9.1427 15.5627 9.86515 16.8488 11.1511C18.1347 12.4372 18.8572 14.1813 18.8572 15.9999C18.8551 17.8179 18.132 19.5609 16.8465 20.8464C15.561 22.1319 13.818 22.8549 12 22.857ZM12 9.99985C10.4087 9.99985 8.88253 10.632 7.75732 11.7572C6.6321 12.8824 5.99997 14.4086 5.99997 15.9999C5.99997 17.5911 6.6321 19.1173 7.75732 20.2426C8.88253 21.3678 10.4087 21.9999 12 21.9999C13.5913 21.9999 15.1175 21.3678 16.2427 20.2426C17.3679 19.1173 18 17.5911 18 15.9999C17.9983 14.4092 17.3656 12.8841 16.2408 11.7591C15.1157 10.6343 13.5907 10.0016 12 9.99985Z" fill="#22262B"/>
<path d="M12.7881 28H11.2119C11.0123 27.9998 10.8193 27.9301 10.6655 27.8029C10.5118 27.6759 10.4074 27.4991 10.3699 27.3032L10.057 25.6631C8.80042 25.414 7.60576 24.9187 6.54143 24.206L5.16044 25.1454C4.99532 25.2575 4.79634 25.3086 4.59756 25.2898C4.39896 25.2711 4.21299 25.1837 4.07181 25.0427L2.95713 23.928C2.81612 23.7868 2.72888 23.6008 2.71013 23.402C2.69157 23.2034 2.74284 23.0044 2.85496 22.8395L3.79361 21.4582C3.08472 20.3919 2.58998 19.1978 2.33666 17.9427L0.696027 17.6299C0.500299 17.5924 0.323894 17.4878 0.196874 17.3341C0.0698306 17.1807 0.000191021 16.9876 0 16.7882V15.2117C0.000191315 15.0123 0.0698355 14.8191 0.196874 14.6655C0.323918 14.5118 0.500701 14.4074 0.696419 14.3699L2.33705 14.057C2.59037 12.8019 3.08512 11.6078 3.794 10.5416L2.85476 9.16003C2.74264 8.99511 2.69156 8.79632 2.71031 8.59774C2.72887 8.39934 2.81612 8.21337 2.95694 8.07219L4.07221 6.95712C4.21341 6.8163 4.39919 6.72906 4.59761 6.71011C4.79621 6.69136 4.995 6.74245 5.1601 6.85418L6.54167 7.79361C7.606 7.08091 8.80067 6.58577 10.0573 6.33646L10.3701 4.69642V4.69662C10.4076 4.5007 10.5123 4.3241 10.6657 4.19687C10.8194 4.06983 11.0126 4.00019 11.2119 4H12.7881C12.9877 4.00019 13.1807 4.06984 13.3345 4.19707C13.4882 4.32411 13.5926 4.50089 13.6301 4.69681L13.943 6.33685C15.1996 6.58595 16.3942 7.08129 17.4586 7.794L18.8398 6.85456C19.0049 6.74263 19.2039 6.69155 19.4026 6.71049C19.6012 6.72924 19.7872 6.81649 19.9284 6.9575L21.0429 8.07199C21.1839 8.21338 21.2713 8.39935 21.2899 8.59793C21.3084 8.79672 21.2573 8.9957 21.145 9.16061L20.2064 10.542C20.9153 11.6084 21.41 12.8023 21.6633 14.0574L23.304 14.3702C23.4997 14.4077 23.6761 14.5124 23.8031 14.6658C23.9302 14.8195 23.9998 15.0123 24 15.2117V16.7884V16.7882C23.9998 16.9876 23.9302 17.1808 23.8031 17.3345C23.6761 17.4881 23.4993 17.5926 23.3036 17.6301L21.663 17.9429C21.4096 19.198 20.9149 20.3921 20.206 21.4583L21.1452 22.8399C21.2574 23.0048 21.3084 23.2036 21.2897 23.4022C21.2711 23.6006 21.1839 23.7866 21.0431 23.9277L19.9278 25.0428C19.7866 25.1838 19.6008 25.2712 19.4024 25.29C19.2038 25.3087 19.005 25.2577 18.8399 25.1457L17.4583 24.2063C16.394 24.919 15.1993 25.4141 13.9427 25.6635L13.6299 27.3035V27.3033C13.5924 27.4992 13.4877 27.6758 13.3343 27.803C13.1806 27.9301 12.9874 27.9997 12.7881 27.9999V28ZM6.54313 23.2581C6.6321 23.2581 6.71896 23.2857 6.79148 23.3373C7.89274 24.1242 9.15936 24.6493 10.4946 24.8722C10.6712 24.902 10.8109 25.0386 10.8443 25.2146L11.2119 27.1428H12.7881L13.1556 25.2146C13.1891 25.0386 13.3287 24.902 13.5053 24.8722C14.8406 24.6493 16.1072 24.1242 17.2085 23.3373C17.3546 23.2338 17.5496 23.2317 17.6979 23.3322L19.3218 24.4365L20.4367 23.322L19.3322 21.6977C19.2312 21.5496 19.2335 21.3542 19.3375 21.2082C20.1244 20.107 20.6493 18.8406 20.8718 17.5055C20.9018 17.3289 21.0382 17.1892 21.2143 17.1555L23.1428 16.788V15.2118L21.2143 14.8443C21.0382 14.8106 20.9018 14.6711 20.8718 14.4945C20.6493 13.1595 20.1244 11.8929 19.3375 10.7916C19.2335 10.6458 19.2312 10.4504 19.3322 10.3023L20.4363 8.67798L19.3216 7.5631L17.6977 8.66764H17.6979C17.5496 8.76847 17.3544 8.76637 17.2084 8.66248C16.1072 7.87557 14.8406 7.35055 13.5053 7.12765C13.3287 7.0978 13.1891 6.96119 13.1556 6.78517L12.788 4.85698H11.2119L10.8443 6.78517C10.8109 6.96119 10.6712 7.0978 10.4946 7.12765C9.1593 7.35054 7.89273 7.87557 6.79147 8.66248C6.64549 8.76637 6.45034 8.76848 6.30206 8.66764L4.67828 7.5633L3.5634 8.67778L4.66794 10.3022H4.66775C4.76877 10.4502 4.76647 10.6456 4.66239 10.7916C3.87548 11.8928 3.35067 13.1593 3.12815 14.4943C3.09811 14.6709 2.9617 14.8106 2.78567 14.8443L0.857094 15.2118V16.7882L2.78567 17.1553V17.1555C2.9617 17.1892 3.09811 17.3287 3.12796 17.5053C3.35067 18.8404 3.87549 20.1069 4.6624 21.2083C4.76648 21.354 4.76859 21.5494 4.66776 21.6975L3.5636 23.3218L4.67809 24.4367L6.30207 23.3322C6.37324 23.284 6.45723 23.2581 6.54314 23.2581L6.54313 23.2581Z" fill="#22262B"/>
<path d="M11.1428 21.1428C11.0133 21.1428 10.8909 21.0843 10.8095 20.9836C10.7282 20.8828 10.6967 20.7508 10.7238 20.6243L11.4692 17.1636L9.42855 17.1634C9.27262 17.1632 9.12893 17.0785 9.05355 16.9418C8.97797 16.8054 8.98276 16.6386 9.0656 16.5066L12.4942 11.0576C12.605 10.8814 12.8261 10.8102 13.0188 10.8886C13.2115 10.9671 13.32 11.1726 13.2761 11.3759L12.5307 14.8367L14.5714 14.8369C14.7274 14.8369 14.871 14.9218 14.9464 15.0582C15.022 15.1948 15.0172 15.3617 14.9344 15.4937L11.5058 20.9427C11.4271 21.0672 11.2902 21.1428 11.1428 21.1428ZM10.2046 16.3061H12C12.1295 16.3061 12.2521 16.3644 12.3335 16.4652C12.4148 16.5659 12.4461 16.6981 12.419 16.8247L12.0729 18.4311L13.7958 15.6936L12 15.6938C11.8705 15.6938 11.7478 15.6354 11.6665 15.5346C11.5852 15.434 11.5538 15.3018 11.581 15.1751L11.9271 13.5687L10.2046 16.3061Z" fill="#22262B"/>
</svg>
