<svg width="58" height="12" viewBox="0 0 58 12" fill="none" xmlns="http://www.w3.org/2000/svg">
<path fill-rule="evenodd" clip-rule="evenodd" d="M5.8 0.000681871C4.26176 0.000681871 2.78628 0.632617 1.69878 1.75794C0.610864 2.88287 0 4.40915 0 6.00034C0 7.59154 0.610906 9.11781 1.69878 10.2427C2.78628 11.3681 4.26176 12 5.8 12C7.33824 12 8.81372 11.3681 9.90122 10.2427C10.9891 9.11781 11.6 7.59154 11.6 6.00034C11.6 4.40915 10.9891 2.88287 9.90122 1.75794C8.81372 0.632574 7.33824 0.000681871 5.8 0.000681871ZM29 0.000681871C27.4618 0.000681871 25.9863 0.632617 24.8988 1.75794C23.8109 2.88287 23.2 4.40915 23.2 6.00034C23.2 7.59154 23.8109 9.11781 24.8988 10.2427C25.9863 11.3681 27.4618 12 29 12C30.5382 12 32.0137 11.3681 33.1012 10.2427C34.1891 9.11781 34.8 7.59154 34.8 6.00034C34.8 4.40207 34.1838 2.86991 33.0874 1.7438C31.9915 0.617576 30.5062 -0.0097104 28.9612 0.000681871H29ZM52.2 0.000681871C50.6618 0.000681871 49.1863 0.632617 48.0988 1.75794C47.0109 2.88287 46.4 4.40915 46.4 6.00034C46.4 7.59154 47.0109 9.11781 48.0988 10.2427C49.1863 11.3681 50.6618 12 52.2 12C53.7382 12 55.2137 11.3681 56.3012 10.2427C57.3891 9.11781 58 7.59154 58 6.00034C58 4.39329 57.3774 2.85363 56.2705 1.7258C55.1639 0.59797 53.6662 -0.023531 52.113 0.000681871H52.2Z" fill="#1A60CD"/>
</svg>
