<svg width="58" height="30" viewBox="0 0 58 30" fill="none" xmlns="http://www.w3.org/2000/svg">
<path d="M3.72534 16.5982V6.38406C3.72534 5.96605 3.44146 5.62732 3.09113 5.62732H0.634212C0.284721 5.62732 0 5.96705 0 6.38406V16.5982C0 17.0162 0.284721 17.3559 0.634212 17.3559H3.09113C3.44104 17.3549 3.72534 17.0162 3.72534 16.5982Z" fill="white"/>
<path d="M14.1925 17.8468C11.3793 17.8468 9.09943 20.5667 9.09943 23.9229C9.09943 27.2796 11.3789 30 14.1925 30C17.0044 30 19.2848 27.2801 19.2848 23.9229C19.2856 20.5672 17.0053 17.8468 14.1925 17.8468ZM16.8728 22.0888L14.8272 22.8831V20.3148C15.7024 20.5306 16.4405 21.191 16.8728 22.0888V22.0888ZM13.5592 20.3139V22.8822L11.5136 22.0878C11.9455 21.191 12.6836 20.5306 13.5592 20.3138V20.3139ZM11.2444 22.8129L11.239 22.834C11.2407 22.8275 11.2432 22.8194 11.2444 22.8129ZM11.1204 23.5275L13.1682 24.3209L11.904 26.3964C11.4077 25.7425 11.1028 24.8769 11.1028 23.9229C11.1024 23.7894 11.1087 23.6575 11.1204 23.5275L11.1204 23.5275ZM12.9284 27.2877L14.1935 25.2107L15.4585 27.2877C15.072 27.4935 14.6447 27.6114 14.1935 27.6114C13.7422 27.6114 13.3145 27.4935 12.9284 27.2877ZM16.4822 26.3965L15.2193 24.321L17.2662 23.5276C17.2776 23.6576 17.2843 23.7886 17.2843 23.923C17.2839 24.8765 16.9794 25.7426 16.4823 26.3965L16.4822 26.3965ZM17.1417 22.8129C17.1429 22.8194 17.1454 22.8275 17.1463 22.833L17.1417 22.8129Z" fill="white"/>
<path d="M47.503 17.8468C44.6911 17.8468 42.4108 20.5667 42.4108 23.9229C42.4108 27.2796 44.6911 30 47.503 30C50.3157 30 52.5961 27.2801 52.5961 23.9229C52.5961 20.5672 50.3157 17.8468 47.503 17.8468ZM50.1833 22.0888L48.1368 22.8831V20.3148C49.0129 20.5306 49.7509 21.191 50.1833 22.0888V22.0888ZM46.8689 20.3139V22.8822L44.8232 22.0878C45.2556 21.191 45.9936 20.5306 46.8689 20.3138V20.3139ZM44.5562 22.8079L44.5482 22.836C44.5512 22.8275 44.5533 22.818 44.5562 22.8079ZM44.4309 23.5275L46.4778 24.3209L45.2136 26.3964C44.7173 25.7415 44.4124 24.8769 44.4124 23.9229C44.412 23.7894 44.4187 23.6575 44.4309 23.5275L44.4309 23.5275ZM46.2385 27.2872L47.5035 25.2112L48.7686 27.2883C48.3817 27.4945 47.9548 27.6119 47.5035 27.6119C47.0523 27.6114 46.625 27.4935 46.2385 27.2873V27.2872ZM49.7927 26.3965L48.5289 24.321L50.5759 23.5276C50.5881 23.6576 50.5944 23.7886 50.5944 23.923C50.5944 24.877 50.2899 25.7426 49.7928 26.3965L49.7927 26.3965ZM50.4505 22.8079C50.453 22.818 50.4551 22.8265 50.4585 22.836L50.4505 22.8079Z" fill="white"/>
<path d="M54.89 18.2528L53.4634 12.4371C53.4634 12.4371 53.1059 11.3968 50.8075 11.0179C48.5087 10.6396 37.0555 9.22096 37.0555 9.22096L33.4752 2.01733C33.4752 2.01733 32.8637 0.944934 31.3779 0.791379C29.8928 0.638324 8.4409 0 8.4409 0C8.4409 0 5.82539 0.141519 5.66637 1.60789C5.50781 3.0742 4.51737 18.586 4.51737 18.586H3.01178V22.3687H7.92615L10.1055 15.8901H17.7939L20.7668 22.3687H39.9872L43.8711 16.0312H51.7571L53.4621 19.011L54.4921 22.7707H57.2064C57.2064 22.7707 58 22.2267 58 20.4773C58.0009 18.7269 57.0096 18.2533 54.889 18.2533L54.89 18.2528ZM23.6466 3.97246C23.6466 3.55445 23.9314 3.21572 24.2817 3.21572H30.8867C31.8839 3.21572 33.7403 7.3382 33.7403 7.75521V9.07957C33.7403 9.49658 32.505 9.83581 32.1547 9.83581H24.2817C23.9314 9.83581 23.6466 9.49708 23.6466 9.07957V3.97246ZM23.502 11.9163H26.0384C26.2063 11.9163 26.3425 12.0784 26.3425 12.2796C26.3425 12.4788 26.2063 12.6414 26.0384 12.6414H23.502C23.3342 12.6414 23.1979 12.4788 23.1979 12.2796C23.1983 12.0784 23.3346 11.9163 23.502 11.9163ZM21.0054 9.07951C21.0054 9.49653 20.7207 9.83576 20.3704 9.83576H8.50784C8.15835 9.83576 7.87405 9.49703 7.87405 9.07951V3.40387C7.87405 2.98585 8.15793 2.64763 8.50784 2.64763H20.3715C20.7218 2.64763 21.0065 2.98635 21.0065 3.40387L21.0061 9.07951H21.0054ZM35.5876 19.0251C35.5796 19.1325 35.5699 19.258 35.5333 19.3935C35.4744 19.6644 35.347 20.0012 35.0926 20.2807C34.8436 20.5657 34.4903 20.7915 34.0719 20.8864C34.018 20.8979 33.9676 20.91 33.8977 20.916L33.7463 20.9245C33.6437 20.93 33.5403 20.9366 33.4339 20.9426C33.2215 20.9506 33.004 20.9616 32.779 20.9717C32.3299 20.9902 31.8559 21.0133 31.3659 21.0219C30.8751 21.0314 30.3688 21.0535 29.854 21.0535C29.3392 21.0585 28.8156 21.063 28.2929 21.0665C27.7701 21.063 27.2473 21.0585 26.7317 21.0535C26.4747 21.049 26.219 21.0439 25.9671 21.0399C25.8405 21.0364 25.7152 21.0329 25.5903 21.0299C25.4557 21.0148 25.322 20.9988 25.1895 20.9837C24.6629 20.8974 24.165 20.6706 23.7768 20.3334C23.3806 20.0112 23.0619 19.6268 22.8225 19.2354C22.5698 18.855 22.3927 18.4656 22.2472 18.1193C22.1051 17.7711 22.0012 17.4574 21.9288 17.1955C21.7812 16.6711 21.7383 16.3614 21.7383 16.3614C21.7383 16.3614 21.833 16.655 22.0445 17.1362C22.1463 17.3786 22.2889 17.6606 22.4575 17.9758C22.6325 18.2874 22.8402 18.6282 23.1001 18.9559C23.3533 19.2931 23.67 19.6012 24.0292 19.8571C24.385 20.1261 24.8131 20.2651 25.253 20.3233C25.3644 20.3303 25.4771 20.3384 25.5907 20.3454C25.7156 20.3424 25.8409 20.3399 25.9675 20.3359C26.2194 20.3308 26.4751 20.3263 26.7321 20.3213C27.2469 20.3168 27.7705 20.3128 28.2933 20.3078C28.816 20.3128 29.3388 20.3173 29.8544 20.3208C30.3692 20.3213 30.8751 20.3429 31.3664 20.3534C31.8567 20.3635 32.3303 20.386 32.7795 20.4046C33.0045 20.4146 33.2219 20.4242 33.4343 20.4332C33.5403 20.4402 33.6441 20.4463 33.7467 20.4518L33.8981 20.4603C33.9276 20.4623 33.9755 20.4583 34.0189 20.4533C34.378 20.4106 34.6997 20.2641 34.9369 20.0569C35.1762 19.8496 35.3276 19.5806 35.4151 19.3398C35.4656 19.2208 35.4891 19.1059 35.514 19.005C35.543 18.9052 35.5527 18.8174 35.5615 18.7451C35.58 18.5996 35.5897 18.5223 35.5897 18.5223C35.5897 18.5223 35.5922 18.6006 35.5964 18.7476C35.5976 18.8244 35.6014 18.9162 35.5876 19.0251L35.5876 19.0251ZM51.2905 14.8218C50.1722 14.8218 49.2647 14.2563 49.2647 13.5608C49.2647 12.8637 50.1723 12.2997 51.2905 12.2997V14.8218Z" fill="white"/>
</svg>
