<svg width="24" height="32" viewBox="0 0 24 32" fill="none" xmlns="http://www.w3.org/2000/svg">
<path d="M8.66458 4.03078C8.41019 4.10239 8.1558 4.31723 8.04745 4.55763L7.94852 4.78269V12.179V19.5754L7.71768 19.7544C7.44445 19.9692 7.28428 20.184 7.12411 20.5626C6.78492 21.3759 6.91211 22.2761 7.45387 22.9052C7.87315 23.3963 8.35366 23.6265 8.93782 23.6265C9.52198 23.6265 9.98365 23.4065 10.3935 22.9359C10.6809 22.6086 10.841 22.2505 10.9164 21.7799C11.0342 21.0331 10.6997 20.1585 10.1344 19.7339L9.92712 19.5805L9.93654 18.3426L9.95067 17.1048L11.4488 17.0895L12.9421 17.0792V16.0051V14.9309L11.4488 14.9207L9.95067 14.9053L9.93654 13.8158L9.92712 12.7315H11.4346H12.9421V11.6317V10.532H11.4346H9.92712V9.45783V8.38368H11.4346H12.9421V7.28395V6.18421H11.4346H9.92712V5.47834C9.92712 4.83385 9.9177 4.74689 9.81877 4.54229C9.62562 4.14332 9.1027 3.91314 8.66458 4.03078Z" fill="#22262B"/>
<path d="M2.48376 16.2557C2.21053 16.3477 2.03622 16.5114 1.08932 17.5498C0.20837 18.5165 0.0905965 18.6649 0.0340651 18.8848C-0.126107 19.5242 0.297879 20.184 0.900881 20.2403C1.35784 20.2812 1.42851 20.2249 2.49318 19.0843C3.53902 17.9641 3.70861 17.7135 3.70861 17.3145C3.7039 16.6495 3.03965 16.0766 2.48376 16.2557Z" fill="#22262B"/>
<path d="M16.0655 18.1891L12.9421 20.1635V21.4576C12.9421 22.1737 12.9516 22.7569 12.961 22.7569C12.9798 22.7569 14.883 21.5651 15.6651 21.0638C15.8818 20.9206 16.0514 20.8285 16.0419 20.8541C16.0372 20.8796 15.5614 21.7645 14.9914 22.8233L13.955 24.7517H9.44661H4.93351V22.0152V19.2786H4.80632C4.19861 19.2838 3.43543 19.8311 3.12922 20.4858C2.91723 20.9461 2.89838 21.161 2.91723 23.2684C2.93136 25.1507 2.93607 25.2479 3.035 25.5087C3.25642 26.1021 3.72751 26.5829 4.2834 26.7977C4.54722 26.9 4.6697 26.9 9.45132 26.9C14.1905 26.9 14.3554 26.8949 14.6475 26.7977C14.9726 26.6903 15.2929 26.4857 15.4955 26.2504C15.5661 26.1737 16.4612 24.5062 17.4929 22.5523C18.5199 20.5983 19.3679 18.9871 19.3773 18.9768C19.3867 18.9666 19.8531 19.2428 20.4137 19.5907C20.979 19.9385 21.5019 20.2505 21.582 20.2863C21.8411 20.3937 22.2274 20.3681 22.4865 20.2249C22.7786 20.0663 22.9199 19.8669 22.9765 19.5344C23.0613 19.0485 22.8964 18.5932 22.5431 18.3324C22.4583 18.271 21.7328 17.8106 20.9272 17.3094C20.1263 16.8132 19.4056 16.3631 19.3255 16.3119L19.1841 16.2199L16.0655 18.1891Z" fill="#22262B"/>
<path d="M21.5535 22.5881C20.5312 23.9692 20.0083 25.0791 20.0083 25.8515C20.0083 26.4602 20.2156 26.9666 20.6443 27.4065C21.7561 28.5471 23.5651 27.964 23.9466 26.3374C24.0974 25.6929 23.9325 25.0126 23.386 24.0203C22.9997 23.3247 22.0952 22.0408 21.9916 22.0408C21.9775 22.0408 21.7796 22.2863 21.5535 22.5881Z" fill="#22262B"/>
</svg>
