<svg width="24" height="32" viewBox="0 0 24 32" fill="none" xmlns="http://www.w3.org/2000/svg">
<path d="M22.8273 13.3143C21.8703 12.2687 20.5843 11.7159 19.1077 11.7159H19.0555C19.1819 11.1997 19.2964 10.6874 19.4081 10.1899C19.4581 9.96917 19.5072 9.75547 19.5564 9.53982C19.8149 8.81969 19.9601 8.05247 19.9601 7.25253C19.9601 3.25343 16.4641 0 12.1665 0C7.86889 0 4.37358 3.25361 4.37358 7.25253C4.37358 8.07414 4.52798 8.86066 4.79981 9.5974C4.84384 9.79184 4.88736 9.98627 4.93218 10.1848C5.04332 10.6835 5.15814 11.198 5.28396 11.7157H4.89155C3.41577 11.7157 2.12977 12.268 1.17271 13.3125C0.215659 14.3576 -0.167043 15.6267 0.0668184 16.9826C0.709297 20.7136 1.3539 24.445 1.99979 28.1758C2.38355 30.3916 4.41188 32 6.82378 32H17.1768C19.5894 32 21.6185 30.3906 22.0013 28.1736C22.6451 24.444 23.2889 20.715 23.9332 16.986C24.167 15.6296 23.7843 14.3603 22.8273 13.3147L22.8273 13.3143ZM12.1663 0.699647C16.0492 0.699647 19.2083 3.6395 19.2083 7.25271C19.2083 10.8659 16.0494 13.8058 12.1663 13.8058C8.28366 13.8058 5.12495 10.8659 5.12495 7.25271C5.12495 3.6395 8.28387 0.699647 12.1663 0.699647ZM12.1663 14.5059C14.6442 14.5059 16.8506 13.4203 18.2789 11.738C17.4414 15.1055 16.146 18.3348 12.1663 18.3348C8.18636 18.3348 6.89358 15.1117 6.06127 11.7474C7.48961 13.4248 9.69281 14.506 12.1663 14.506V14.5059ZM23.1897 16.8747C22.5451 20.6042 21.9016 24.3339 21.2578 28.0635C20.9343 29.9395 19.2174 31.3013 17.1756 31.3013H6.82265C4.78171 31.3013 3.06502 29.94 2.74077 28.0653C2.09488 24.3348 1.45034 20.6035 0.807804 16.8727C0.607535 15.7087 0.922353 14.6642 1.74359 13.7674C2.56536 12.8704 3.62408 12.4156 4.89049 12.4156H5.46088C6.3503 15.7626 7.86694 19.0342 12.1664 19.0342C16.4617 19.0342 17.9818 15.7621 18.8764 12.4156H19.1076C20.3753 12.4156 21.4335 12.8706 22.2555 13.7681C23.077 14.6658 23.3908 15.7109 23.1898 16.8748L23.1897 16.8747Z" fill="black"/>
<path d="M9.37138 7.51128H12.0018V9.95932H12.7539V7.51128H16.1351V4.36383H15.3836V6.81188H12.7539V4.36383H12.0018V6.81188H9.37138V4.36383H8.61987V9.95939H9.37138V7.51128Z" fill="black"/>
<path d="M19.1942 26.7215C18.9462 28.1589 17.6309 29.2025 16.067 29.2025H7.93181C6.36819 29.2025 5.05286 28.1599 4.8041 26.723L4.52703 25.1221L3.78491 25.2326L4.06198 26.834C4.36972 28.6117 5.99703 29.9014 7.93181 29.9014H16.0663C18.0016 29.9014 19.6289 28.6107 19.9359 26.8318L20.7437 22.1543L20.0016 22.043L19.1942 26.7215Z" fill="black"/>
<path d="M20.9867 20.7404L20.2446 20.6292L20.7125 17.9291L21.4547 18.0404L20.9867 20.7404Z" fill="black"/>
<path d="M12.1663 13.285C15.7402 13.285 18.6482 10.579 18.6482 7.25274C18.6482 3.92643 15.7404 1.22052 12.1663 1.22052C8.59211 1.22052 5.68457 3.92643 5.68457 7.25274C5.68457 10.579 8.59211 13.285 12.1663 13.285ZM12.1663 1.91998C15.3263 1.91998 17.8967 4.3122 17.8967 7.2528C17.8967 10.1934 15.3263 12.5856 12.1663 12.5856C9.00655 12.5856 6.43608 10.1934 6.43608 7.2528C6.43608 4.3122 9.00655 1.91998 12.1663 1.91998Z" fill="black"/>
</svg>
