<svg width="59" height="39" viewBox="0 0 59 39" fill="none" xmlns="http://www.w3.org/2000/svg">
<path d="M42.7397 9.24475H33.1551L26.7654 18.7934V21.3395L42.7397 21.34V9.24475ZM39.954 18.7934C39.954 19.0572 39.7392 19.2712 39.4744 19.2712H30.7844C30.6061 19.273 30.4416 19.1762 30.357 19.0199C30.2727 18.8636 30.2821 18.6735 30.3819 18.5261L34.6247 12.1603C34.7156 12.0284 34.8667 11.9498 35.0272 11.9503H39.5003C39.6278 11.9485 39.7508 11.9982 39.8408 12.0884C39.9313 12.1781 39.9812 12.3006 39.9794 12.4276L39.954 18.7934Z" fill="#1A60CD"/>
<path d="M31.6787 18.3037H38.9951V12.8926H35.2827L31.6787 18.3037Z" fill="#1A60CD"/>
<path d="M53.755 7.84424C53.2576 8.25498 52.6818 8.56048 52.0618 8.74209L52.5792 14.0257C52.6055 14.2872 52.4139 14.5208 52.1514 14.5474H52.1001C51.8532 14.5483 51.6473 14.36 51.6272 14.1145L51.116 8.91342V8.91386C50.9863 8.92052 50.8561 8.92052 50.7264 8.91386C49.6202 8.91564 48.5482 8.53021 47.6978 7.82507L45.9916 21.3399H55.4612L53.755 7.84424ZM52.4772 17.8511H52.4326V17.8516C52.1857 17.8494 51.9793 17.6633 51.9535 17.4186L51.8323 16.1456H51.8318C51.8193 16.0186 51.8586 15.892 51.9401 15.7944C52.0217 15.6962 52.1389 15.6345 52.2664 15.6234C52.3934 15.6092 52.5205 15.6474 52.6185 15.7295C52.7161 15.8112 52.7758 15.9294 52.7839 16.0563L52.9118 17.3294C52.926 17.4577 52.8868 17.586 52.8035 17.6846C52.7201 17.7832 52.5998 17.8436 52.471 17.8516L52.4772 17.8511Z" fill="#1A60CD"/>
<path d="M9.51312 2.61206V5.79495H46.2597C46.0743 5.28475 45.9793 4.74612 45.9785 4.20351C45.9807 3.66089 46.0756 3.12271 46.2597 2.61206H9.51312Z" fill="#1A60CD"/>
<path d="M27.2446 22.2628V27.6864H55.0399V22.2628H27.2446Z" fill="#1A60CD"/>
<path d="M26.7653 28.6411H24.2671V30.5892H30.3501H30.3496C30.6144 30.5892 30.8292 30.8027 30.8292 31.0665C30.8292 31.3303 30.6144 31.5438 30.3496 31.5438H24.267V34.7267H36.1712C36.1712 33.0714 37.0578 31.5412 38.497 30.7134C39.9362 29.8858 41.7092 29.8858 43.1489 30.7134C44.5881 31.5411 45.4747 33.0713 45.4747 34.7267H47.1742C47.1742 33.0714 48.0607 31.5412 49.5 30.7134C50.9396 29.8858 52.7126 29.8858 54.1519 30.7134C55.5912 31.5411 56.4776 33.0713 56.4776 34.7267H58.7143V28.6412L26.7653 28.6411ZM35.1296 31.5247H33.1551C32.8903 31.5247 32.6759 31.3111 32.6759 31.0474C32.6759 30.7836 32.8903 30.57 33.1551 30.57H35.1296C35.3943 30.57 35.6087 30.7836 35.6087 31.0474C35.6087 31.3111 35.3943 31.5247 35.1296 31.5247Z" fill="#1A60CD"/>
<path d="M7.33386 23.9691V32.5436C7.33386 33.128 7.56697 33.6879 7.98148 34.1013C8.39599 34.5143 8.95848 34.7461 9.54457 34.7461H9.90916C9.90916 33.0907 10.7957 31.5606 12.2349 30.7328C13.6741 29.905 15.4471 29.9051 16.8868 30.7328C18.326 31.5605 19.2126 33.0906 19.2126 34.7461H23.3083V14.421H13.7237L7.33386 23.9691ZM15.596 17.1256H20.0687C20.3334 17.1256 20.5478 17.3396 20.5478 17.6034V23.9692C20.5478 24.2325 20.3334 24.4465 20.0687 24.4465H11.3532C11.1749 24.4483 11.01 24.3519 10.9253 24.1952C10.8411 24.0389 10.8505 23.8488 10.9503 23.7014L15.1931 17.3356H15.1935C15.2858 17.2055 15.4355 17.1274 15.596 17.1256L15.596 17.1256Z" fill="#1A60CD"/>
<path d="M19.5645 18.0809H15.8522L12.2419 23.4916H19.5645V18.0809Z" fill="#1A60CD"/>
<path d="M5.3724 7.87626H7.091C7.91334 7.87626 8.58015 7.21242 8.58015 6.39314V2.01973C8.58015 1.20048 7.91336 0.536621 7.091 0.536621H2.69499C1.87266 0.536621 1.2063 1.20046 1.2063 2.01973V6.39314C1.2063 7.2124 1.87264 7.87626 2.69499 7.87626H4.40116V10.5183C3.39653 10.6053 2.46097 11.0645 1.7791 11.8042C1.09671 12.5439 0.716964 13.5111 0.714294 14.5159V14.7894C0.71786 15.8538 1.14485 16.8728 1.9021 17.6238C2.65936 18.3747 3.68449 18.7952 4.75237 18.7934H5.04029C6.10911 18.792 7.13338 18.368 7.88931 17.6154C8.64523 16.8623 9.07049 15.8415 9.0722 14.7766C9.0722 14.5132 8.85737 14.2992 8.59262 14.2992C8.32831 14.2992 8.11348 14.5132 8.11348 14.7766C8.1117 15.5883 7.78767 16.3662 7.21137 16.9399C6.63551 17.5136 5.85458 17.8369 5.04035 17.8386H4.76534C3.95192 17.8351 3.17282 17.5114 2.59831 16.9377C2.02334 16.364 1.7002 15.5873 1.69842 14.7765V14.503C1.70021 13.693 2.0238 12.9169 2.59876 12.3441C3.17329 11.7717 3.95235 11.4489 4.76533 11.4475H4.90618C5.16915 11.444 5.38175 11.2322 5.38531 10.9698V7.8761L5.3724 7.87626Z" fill="#1A60CD"/>
<path d="M18.2544 34.7456C18.2544 36.778 16.6013 38.4254 14.5613 38.4254C12.5217 38.4254 10.8682 36.778 10.8682 34.7456C10.8682 32.7137 12.5217 31.0663 14.5613 31.0663C16.6013 31.0663 18.2544 32.7137 18.2544 34.7456Z" fill="#1A60CD"/>
<path d="M55.421 33.9031C55.8894 35.8809 54.6597 37.8627 52.675 38.3294C50.6898 38.7961 48.7006 37.5714 48.2317 35.5937C47.7633 33.616 48.993 31.6342 50.9782 31.1675C52.9633 30.7003 54.9521 31.9254 55.4211 33.9031" fill="#1A60CD"/>
<path d="M43.4311 32.1457C44.8731 33.5826 44.8731 35.9125 43.4311 37.3494C41.9888 38.7863 39.6501 38.7863 38.2079 37.3494C36.7656 35.9124 36.7655 33.5825 38.2079 32.1457C39.6503 30.7088 41.9889 30.7087 43.4311 32.1457Z" fill="#1A60CD"/>
<path d="M54.5161 4.20339C54.5161 6.28818 52.8197 7.97864 50.7271 7.97864C48.6345 7.97864 46.9381 6.28818 46.9381 4.20339C46.9381 2.11859 48.6345 0.428589 50.7271 0.428589C52.8197 0.428589 54.5161 2.11859 54.5161 4.20339Z" fill="#1A60CD"/>
</svg>
